<?xml version="1.0" standalone="no"?>
<!DOCTYPE svg PUBLIC "-//W3C//DTD SVG 20010904//EN"
 "http://www.w3.org/TR/2001/REC-SVG-20010904/DTD/svg10.dtd">
<svg version="1.0" xmlns="http://www.w3.org/2000/svg"
 width="985.000000pt" height="504.000000pt" viewBox="0 0 985.000000 504.000000"
 preserveAspectRatio="xMidYMid meet">
<metadata>
Created by potrace 1.11, written by Peter Selinger 2001-2013
</metadata>
<g transform="translate(0.000000,504.000000) scale(0.100000,-0.100000)"
fill="#000000" stroke="none">
<path d="M1558 4868 c-52 -57 -363 -401 -691 -766 l-597 -663 2 -806 3 -807
640 -367 640 -366 7 -49 c10 -76 9 -231 -2 -320 -19 -154 -59 -265 -134 -373
-20 -30 -36 -64 -36 -77 0 -21 5 -24 38 -24 74 0 354 89 413 130 36 27 36 43
-1 116 -24 48 -32 80 -41 169 -15 150 -8 411 11 429 8 7 292 170 630 361 338
191 623 355 633 363 16 14 17 66 17 817 l0 802 -601 664 c-813 897 -786 869
-814 869 -16 0 -50 -29 -117 -102z m137 -294 c22 -9 558 -636 753 -882 86
-109 101 -137 53 -103 -30 21 -347 348 -616 634 -81 86 -149 157 -151 157 -2
0 -4 -378 -4 -841 l0 -841 43 25 c222 130 1041 587 1052 587 7 0 21 -7 29 -16
14 -14 16 -88 16 -667 0 -359 -4 -657 -8 -663 -8 -12 -348 -208 -787 -451
-330 -184 -368 -203 -397 -202 -13 0 -282 147 -598 327 l-575 327 -3 656 -2
656 332 379 c552 630 819 924 842 924 2 0 12 -3 21 -6z"/>
<path d="M1590 4464 c-50 -70 -433 -549 -732 -916 l-258 -317 2 -601 3 -602
450 -255 c248 -140 478 -270 513 -290 l62 -35 0 565 0 565 -177 107 c-397 241
-563 354 -521 355 10 0 170 -76 355 -169 186 -94 339 -169 340 -167 2 2 2 409
1 906 l-3 902 -35 -48z"/>
<path d="M2245 2870 l-510 -288 -3 -614 -2 -615 243 161 c133 89 367 240 520
336 l277 175 0 568 c0 312 -3 567 -7 567 -5 -1 -237 -131 -518 -290z"/>
<path d="M6837 3429 c-168 -40 -254 -210 -181 -357 41 -83 135 -140 278 -167
137 -26 196 -63 196 -122 0 -45 -45 -73 -115 -73 -66 1 -113 19 -167 63 -44
36 -48 37 -127 37 l-81 0 0 -130 0 -130 85 0 c71 0 85 3 85 16 0 11 5 14 18 9
83 -35 216 -46 292 -25 62 17 126 65 157 117 24 41 28 58 27 118 -1 153 -97
239 -317 285 -53 11 -111 27 -127 35 -102 53 -60 158 63 156 66 0 111 -17 159
-60 34 -30 40 -31 122 -31 l86 0 0 130 0 130 -85 0 c-72 0 -85 -3 -85 -16 0
-12 -6 -15 -22 -10 -135 39 -184 43 -261 25z"/>
<path d="M3510 3415 c-61 -19 -115 -66 -148 -129 -27 -50 -27 -54 -30 -274 -4
-264 4 -306 71 -379 68 -74 96 -83 282 -83 179 0 212 9 273 70 65 65 76 100
80 258 l4 142 -176 0 -176 0 0 -85 0 -85 85 0 c97 0 104 -6 85 -65 -19 -58
-39 -65 -178 -65 -117 0 -124 1 -147 25 -25 24 -25 24 -25 239 0 213 0 215 24
243 24 28 25 28 150 28 121 0 126 -1 151 -25 16 -17 26 -39 28 -65 l4 -40 86
-3 87 -3 0 39 c0 116 -77 226 -181 256 -68 21 -284 21 -349 1z"/>
<path d="M4110 3345 l0 -85 45 0 45 0 0 -270 0 -270 -45 0 -45 0 0 -85 0 -85
310 0 310 0 0 130 0 130 -85 0 -85 0 0 -45 0 -46 -92 3 -93 3 0 85 0 85 88 3
87 3 0 84 0 84 -87 3 -88 3 0 90 0 90 90 0 90 0 3 -42 3 -43 85 0 84 0 0 130
0 130 -310 0 -310 0 0 -85z"/>
<path d="M5010 3077 l-105 -352 -43 -3 -42 -3 0 -85 0 -84 175 0 175 0 0 85 0
85 -40 0 c-44 0 -47 7 -29 59 l11 31 138 0 138 0 11 -31 c18 -52 15 -59 -29
-59 l-40 0 0 -85 0 -85 175 0 175 0 0 84 0 85 -42 3 -42 3 -105 353 -106 352
-135 0 -135 0 -105 -353z m250 170 c0 -1 16 -56 35 -121 19 -66 35 -125 35
-133 0 -10 -20 -13 -80 -13 -52 0 -80 4 -80 11 0 25 74 259 82 259 4 0 8 -1 8
-3z"/>
<path d="M5770 3346 l0 -85 43 -3 42 -3 3 -267 2 -268 -45 0 -45 0 0 -87 0
-88 175 3 175 3 0 84 0 85 -45 0 -45 0 0 75 0 75 80 0 79 0 41 -69 c22 -38 40
-72 40 -75 0 -3 -16 -6 -35 -6 l-35 0 0 -85 0 -85 175 0 175 0 0 85 0 85 -37
0 c-37 1 -39 2 -96 101 l-57 101 31 36 c104 118 94 288 -21 396 -73 68 -111
76 -377 76 l-223 0 0 -84z m453 -100 c42 -17 67 -55 67 -102 0 -28 -8 -44 -34
-70 -34 -34 -34 -34 -130 -34 l-96 0 0 110 0 110 80 0 c46 0 95 -6 113 -14z"/>
<path d="M7390 3346 l0 -85 43 -3 42 -3 3 -267 2 -268 -45 0 -45 0 0 -85 0
-85 175 0 175 0 0 85 0 85 -45 0 -45 0 0 90 0 90 130 0 130 0 0 -90 0 -90 -45
0 -45 0 0 -85 0 -85 175 0 175 0 0 84 0 85 -42 3 -43 3 0 265 0 265 43 3 42 3
0 85 0 84 -175 0 -175 0 0 -85 0 -85 45 0 45 0 0 -95 0 -96 -127 3 -128 3 -3
93 -3 92 46 0 45 0 0 85 0 85 -175 0 -175 0 0 -84z"/>
<path d="M8260 3346 l0 -85 43 -3 42 -3 3 -267 2 -268 -45 0 -45 0 0 -85 0
-85 308 0 307 0 -2 127 -2 128 -85 3 -86 3 0 -46 0 -45 -90 0 -90 0 0 90 0 90
90 0 90 0 0 85 0 85 -90 0 -90 0 0 95 0 95 90 0 90 0 0 -45 0 -45 88 0 87 0 0
130 0 130 -307 0 -308 0 0 -84z"/>
<path d="M8960 3346 l0 -85 43 -3 42 -3 3 -267 2 -268 -45 0 -45 0 0 -86 0
-85 228 3 c212 3 230 4 273 26 70 34 122 84 160 154 l34 63 3 175 c3 159 2
180 -18 233 -30 79 -102 156 -182 193 -63 29 -65 29 -280 32 l-218 3 0 -85z
m426 -111 c28 -14 60 -40 74 -62 23 -34 25 -47 28 -174 4 -157 -8 -195 -75
-246 -31 -24 -47 -28 -115 -32 l-78 -3 0 271 0 271 58 0 c42 0 72 -7 108 -25z"/>
</g>
</svg>
